<svg width="280" height="55" viewBox="0 0 280 55" fill="none" xmlns="http://www.w3.org/2000/svg">
<path d="M92.1531 11.934C93.1736 11.934 94.0906 12.1559 94.9041 12.5996C95.7176 13.0433 96.3535 13.6941 96.812 14.5519C97.2705 15.3949 97.4998 16.4155 97.4998 17.6135V23.0711C97.4998 23.3965 97.3889 23.6701 97.167 23.892C96.9599 24.0991 96.6937 24.2026 96.3683 24.2026C96.0429 24.2026 95.7693 24.0991 95.5475 23.892C95.3404 23.6701 95.2369 23.3965 95.2369 23.0711V17.6135C95.2369 16.4155 94.9115 15.5133 94.2607 14.9069C93.6247 14.2857 92.7743 13.9751 91.7094 13.9751C91.0882 13.9751 90.5187 14.1008 90.0011 14.3522C89.4982 14.6037 89.0989 14.9438 88.8031 15.3728C88.5221 15.8017 88.3815 16.2824 88.3815 16.8148V23.0711C88.3815 23.3965 88.278 23.6701 88.0709 23.892C87.8639 24.0991 87.5903 24.2026 87.2501 24.2026C86.9247 24.2026 86.6511 24.0991 86.4292 23.892C86.2222 23.6701 86.1186 23.3965 86.1186 23.0711V13.1764C86.1186 12.8362 86.2222 12.5626 86.4292 12.3555C86.6511 12.1485 86.9247 12.0449 87.2501 12.0449C87.5903 12.0449 87.8639 12.1485 88.0709 12.3555C88.278 12.5626 88.3815 12.8362 88.3815 13.1764V13.4204C88.8548 12.9471 89.4169 12.5848 90.0676 12.3333C90.7184 12.0671 91.4136 11.934 92.1531 11.934Z" fill="#25265E"/>
<path d="M107.631 11.9562C108.799 11.9562 109.842 12.2224 110.759 12.7549C111.691 13.2725 112.415 13.9973 112.933 14.929C113.465 15.8608 113.732 16.9257 113.732 18.1238V22.9158C113.732 24.0843 113.473 25.1492 112.955 26.1105C112.437 27.0719 111.705 27.8262 110.759 28.3735C109.827 28.9355 108.769 29.2165 107.586 29.2165C106.521 29.2165 105.53 29.0021 104.613 28.5731C103.696 28.159 102.927 27.56 102.306 26.7761C102.143 26.569 102.062 26.362 102.062 26.1549C102.062 25.8443 102.217 25.5781 102.528 25.3562C102.735 25.2231 102.942 25.1566 103.149 25.1566C103.519 25.1566 103.822 25.3119 104.059 25.6225C104.458 26.1401 104.961 26.5321 105.567 26.7983C106.174 27.0793 106.861 27.2198 107.631 27.2198C108.355 27.2198 109.013 27.0423 109.605 26.6874C110.197 26.3472 110.67 25.8369 111.025 25.1566C111.38 24.491 111.557 23.6923 111.557 22.7605V21.6734C111.099 22.4869 110.493 23.1229 109.738 23.5814C108.984 24.0399 108.133 24.2691 107.187 24.2691C106.092 24.2691 105.109 24.0103 104.236 23.4927C103.378 22.9602 102.705 22.2281 102.217 21.2963C101.744 20.3645 101.507 19.307 101.507 18.1238C101.507 16.9257 101.766 15.8608 102.284 14.929C102.802 13.9973 103.526 13.2725 104.458 12.7549C105.39 12.2224 106.447 11.9562 107.631 11.9562ZM107.631 22.2724C108.385 22.2724 109.058 22.095 109.649 21.74C110.256 21.385 110.722 20.8969 111.047 20.2758C111.387 19.6398 111.557 18.9224 111.557 18.1238C111.557 17.3251 111.387 16.6077 111.047 15.9718C110.722 15.3358 110.256 14.8403 109.649 14.4853C109.058 14.1304 108.385 13.9529 107.631 13.9529C106.876 13.9529 106.196 14.1304 105.59 14.4853C104.998 14.8403 104.532 15.3358 104.192 15.9718C103.852 16.6077 103.682 17.3251 103.682 18.1238C103.682 18.9224 103.852 19.6398 104.192 20.2758C104.532 20.8969 104.998 21.385 105.59 21.74C106.196 22.095 106.876 22.2724 107.631 22.2724Z" fill="#25265E"/>
<path d="M128.88 17.9241C128.88 18.2051 128.784 18.4418 128.592 18.634C128.399 18.8115 128.155 18.9003 127.859 18.9003H119.429C119.592 19.9356 120.058 20.7712 120.827 21.4072C121.611 22.0432 122.565 22.3612 123.689 22.3612C124.132 22.3612 124.591 22.2798 125.064 22.1172C125.552 21.9545 125.952 21.7548 126.262 21.5181C126.469 21.3554 126.713 21.2741 126.994 21.2741C127.275 21.2741 127.497 21.3481 127.66 21.496C127.926 21.7178 128.059 21.9692 128.059 22.2503C128.059 22.5165 127.941 22.7383 127.704 22.9158C127.201 23.3152 126.573 23.6406 125.818 23.892C125.079 24.1434 124.369 24.2691 123.689 24.2691C122.476 24.2691 121.389 24.0103 120.427 23.4927C119.466 22.9602 118.712 22.2281 118.164 21.2963C117.632 20.3645 117.366 19.307 117.366 18.1238C117.366 16.9405 117.617 15.883 118.12 14.9512C118.638 14.0046 119.348 13.2725 120.25 12.7549C121.167 12.2224 122.202 11.9562 123.356 11.9562C124.495 11.9562 125.478 12.2076 126.306 12.7105C127.135 13.2134 127.771 13.9159 128.214 14.8181C128.658 15.7203 128.88 16.7557 128.88 17.9241ZM123.356 13.8641C122.276 13.8641 121.396 14.1599 120.716 14.7516C120.05 15.3432 119.629 16.1345 119.451 17.1254H126.839C126.706 16.1345 126.336 15.3432 125.73 14.7516C125.123 14.1599 124.332 13.8641 123.356 13.8641Z" fill="#25265E"/>
<path d="M132.21 7.96279C132.21 7.6374 132.313 7.37118 132.52 7.16411C132.728 6.95705 132.994 6.85352 133.319 6.85352C133.645 6.85352 133.911 6.95705 134.118 7.16411C134.325 7.37118 134.428 7.6374 134.428 7.96279V20.0761C134.428 20.6233 134.532 21.0744 134.739 21.4294C134.946 21.7844 135.212 21.9619 135.538 21.9619H136.092C136.388 21.9619 136.625 22.0654 136.802 22.2724C136.995 22.4795 137.091 22.7457 137.091 23.0711C137.091 23.3965 136.95 23.6627 136.669 23.8698C136.388 24.0769 136.026 24.1804 135.582 24.1804H135.538C134.902 24.1804 134.325 24.0103 133.807 23.6701C133.304 23.3152 132.912 22.8271 132.631 22.2059C132.35 21.5699 132.21 20.86 132.21 20.0761V7.96279Z" fill="#25265E"/>
<path d="M145.023 11.9562C146.162 11.9562 147.19 12.2298 148.107 12.777C149.038 13.3095 149.77 14.049 150.303 14.9956C150.85 15.9274 151.124 16.9701 151.124 18.1238V23.0711C151.124 23.3965 151.013 23.6701 150.791 23.892C150.584 24.0991 150.318 24.2026 149.992 24.2026C149.667 24.2026 149.393 24.0991 149.171 23.892C148.964 23.6701 148.861 23.3965 148.861 23.0711V22.2503C148.343 22.8862 147.715 23.3817 146.975 23.7367C146.236 24.0917 145.437 24.2691 144.579 24.2691C143.514 24.2691 142.545 24.0029 141.673 23.4705C140.815 22.938 140.135 22.2059 139.632 21.2741C139.144 20.3275 138.9 19.2774 138.9 18.1238C138.9 16.9701 139.166 15.9274 139.698 14.9956C140.231 14.049 140.963 13.3095 141.895 12.777C142.841 12.2298 143.884 11.9562 145.023 11.9562ZM145.023 22.2724C145.762 22.2724 146.428 22.095 147.019 21.74C147.626 21.3702 148.099 20.8748 148.439 20.2536C148.779 19.6176 148.95 18.9076 148.95 18.1238C148.95 17.3399 148.779 16.6299 148.439 15.9939C148.099 15.358 147.626 14.8625 147.019 14.5075C146.428 14.1378 145.762 13.9529 145.023 13.9529C144.283 13.9529 143.61 14.1378 143.004 14.5075C142.412 14.8625 141.939 15.358 141.584 15.9939C141.244 16.6299 141.074 17.3399 141.074 18.1238C141.074 18.9076 141.244 19.6176 141.584 20.2536C141.939 20.8748 142.412 21.3702 143.004 21.74C143.61 22.095 144.283 22.2724 145.023 22.2724Z" fill="#25265E"/>
<path d="M200.263 12.8926C201.402 12.8926 202.43 13.1662 203.347 13.7135C204.279 14.2459 205.011 14.9854 205.543 15.932C206.09 16.8638 206.364 17.9065 206.364 19.0602V24.0075C206.364 24.3329 206.253 24.6065 206.031 24.8284C205.824 25.0355 205.558 25.139 205.233 25.139C204.907 25.139 204.634 25.0355 204.412 24.8284C204.205 24.6065 204.101 24.3329 204.101 24.0075V23.1867C203.583 23.8227 202.955 24.3181 202.215 24.6731C201.476 25.0281 200.677 25.2055 199.819 25.2055C198.754 25.2055 197.786 24.9393 196.913 24.4069C196.055 23.8744 195.375 23.1423 194.872 22.2105C194.384 21.2639 194.14 20.2138 194.14 19.0602C194.14 17.9065 194.406 16.8638 194.938 15.932C195.471 14.9854 196.203 14.2459 197.135 13.7135C198.081 13.1662 199.124 12.8926 200.263 12.8926ZM200.263 23.2089C201.003 23.2089 201.668 23.0314 202.26 22.6764C202.866 22.3066 203.339 21.8112 203.68 21.19C204.02 20.554 204.19 19.844 204.19 19.0602C204.19 18.2763 204.02 17.5663 203.68 16.9304C203.339 16.2944 202.866 15.7989 202.26 15.4439C201.668 15.0742 201.003 14.8893 200.263 14.8893C199.523 14.8893 198.851 15.0742 198.244 15.4439C197.652 15.7989 197.179 16.2944 196.824 16.9304C196.484 17.5663 196.314 18.2763 196.314 19.0602C196.314 19.844 196.484 20.554 196.824 21.19C197.179 21.8112 197.652 22.3066 198.244 22.6764C198.851 23.0314 199.523 23.2089 200.263 23.2089Z" fill="#25265E"/>
<path d="M216.565 12.8482C217.349 12.8482 217.963 12.9665 218.406 13.2032C218.85 13.4398 219.072 13.7356 219.072 14.0906C219.072 14.1941 219.065 14.2681 219.05 14.3125C218.917 14.7857 218.621 15.0224 218.162 15.0224C218.088 15.0224 217.977 15.0076 217.83 14.978C217.238 14.8745 216.757 14.8227 216.388 14.8227C215.323 14.8227 214.465 15.0668 213.814 15.5548C213.163 16.0429 212.838 16.7011 212.838 17.5294V24.0075C212.838 24.3625 212.742 24.6361 212.549 24.8284C212.372 25.0207 212.098 25.1168 211.729 25.1168C211.374 25.1168 211.1 25.0281 210.908 24.8506C210.715 24.6583 210.619 24.3773 210.619 24.0075V14.0906C210.619 13.7356 210.715 13.462 210.908 13.2697C211.1 13.0775 211.374 12.9813 211.729 12.9813C212.468 12.9813 212.838 13.3511 212.838 14.0906V14.5121C213.282 13.9945 213.829 13.5877 214.48 13.2919C215.13 12.9961 215.825 12.8482 216.565 12.8482Z" fill="#25265E"/>
<path d="M226.91 12.8926C228.078 12.8926 229.121 13.1588 230.038 13.6913C230.97 14.2089 231.695 14.9337 232.212 15.8654C232.745 16.7972 233.011 17.8621 233.011 19.0602C233.011 20.2434 232.752 21.3009 232.234 22.2327C231.717 23.1645 230.992 23.8966 230.06 24.4291C229.143 24.9467 228.093 25.2055 226.91 25.2055C225.727 25.2055 224.669 24.9467 223.737 24.4291C222.806 23.8966 222.081 23.1645 221.563 22.2327C221.046 21.3009 220.787 20.2434 220.787 19.0602C220.787 17.8621 221.046 16.7972 221.563 15.8654C222.081 14.9337 222.806 14.2089 223.737 13.6913C224.669 13.1588 225.727 12.8926 226.91 12.8926ZM226.91 14.8893C226.156 14.8893 225.475 15.0668 224.869 15.4217C224.277 15.7767 223.811 16.2722 223.471 16.9082C223.131 17.5441 222.961 18.2615 222.961 19.0602C222.961 19.8588 223.131 20.5762 223.471 21.2122C223.811 21.8333 224.277 22.3214 224.869 22.6764C225.475 23.0314 226.156 23.2089 226.91 23.2089C227.664 23.2089 228.337 23.0314 228.929 22.6764C229.535 22.3214 230.001 21.8333 230.326 21.2122C230.667 20.5762 230.837 19.8588 230.837 19.0602C230.837 18.2615 230.667 17.5441 230.326 16.9082C230.001 16.2722 229.535 15.7767 228.929 15.4217C228.337 15.0668 227.664 14.8893 226.91 14.8893Z" fill="#25265E"/>
<path d="M236.822 8.89919C236.822 8.57381 236.926 8.30758 237.133 8.10051C237.34 7.89345 237.606 7.78992 237.932 7.78992C238.257 7.78992 238.523 7.89345 238.73 8.10051C238.937 8.30758 239.041 8.57381 239.041 8.89919V21.0125C239.041 21.5597 239.145 22.0108 239.352 22.3658C239.559 22.7208 239.825 22.8983 240.15 22.8983H240.705C241.001 22.8983 241.237 23.0018 241.415 23.2089C241.607 23.4159 241.703 23.6821 241.703 24.0075C241.703 24.3329 241.563 24.5991 241.282 24.8062C241.001 25.0133 240.638 25.1168 240.195 25.1168H240.15C239.514 25.1168 238.937 24.9467 238.42 24.6065C237.917 24.2516 237.525 23.7635 237.244 23.1423C236.963 22.5063 236.822 21.7964 236.822 21.0125V8.89919Z" fill="#25265E"/>
<path d="M245.027 14.1128C245.027 13.7726 245.13 13.499 245.337 13.2919C245.559 13.0849 245.833 12.9813 246.158 12.9813C246.498 12.9813 246.772 13.0849 246.979 13.2919C247.186 13.499 247.29 13.7726 247.29 14.1128V23.9853C247.29 24.3107 247.186 24.5844 246.979 24.8062C246.772 25.0133 246.498 25.1168 246.158 25.1168C245.833 25.1168 245.559 25.0133 245.337 24.8062C245.13 24.5844 245.027 24.3107 245.027 23.9853V14.1128ZM246.158 8.07833C246.558 8.07833 246.898 8.22623 247.179 8.52204C247.475 8.80306 247.622 9.14323 247.622 9.54257C247.622 9.94191 247.475 10.2895 247.179 10.5853C246.898 10.8663 246.558 11.0068 246.158 11.0068C245.759 11.0068 245.411 10.8663 245.116 10.5853C244.835 10.2895 244.694 9.94191 244.694 9.54257C244.694 9.14323 244.835 8.80306 245.116 8.52204C245.411 8.22623 245.759 8.07833 246.158 8.07833Z" fill="#25265E"/>
<path d="M258.421 12.8704C259.442 12.8704 260.359 13.0923 261.172 13.536C261.986 13.9797 262.622 14.6305 263.08 15.4883C263.539 16.3313 263.768 17.3519 263.768 18.5499V24.0075C263.768 24.3329 263.657 24.6065 263.435 24.8284C263.228 25.0355 262.962 25.139 262.637 25.139C262.311 25.139 262.038 25.0355 261.816 24.8284C261.609 24.6065 261.505 24.3329 261.505 24.0075V18.5499C261.505 17.3519 261.18 16.4497 260.529 15.8433C259.893 15.2221 259.043 14.9115 257.978 14.9115C257.357 14.9115 256.787 15.0372 256.269 15.2886C255.767 15.5401 255.367 15.8802 255.071 16.3092C254.79 16.7381 254.65 17.2188 254.65 17.7512V24.0075C254.65 24.3329 254.546 24.6065 254.339 24.8284C254.132 25.0355 253.859 25.139 253.518 25.139C253.193 25.139 252.919 25.0355 252.698 24.8284C252.491 24.6065 252.387 24.3329 252.387 24.0075V14.1128C252.387 13.7726 252.491 13.499 252.698 13.2919C252.919 13.0849 253.193 12.9813 253.518 12.9813C253.859 12.9813 254.132 13.0849 254.339 13.2919C254.546 13.499 254.65 13.7726 254.65 14.1128V14.3568C255.123 13.8835 255.685 13.5212 256.336 13.2697C256.987 13.0035 257.682 12.8704 258.421 12.8704Z" fill="#25265E"/>
<path d="M273.899 12.8926C275.038 12.8926 276.066 13.1662 276.983 13.7135C277.915 14.2459 278.647 14.9854 279.179 15.932C279.726 16.8638 280 17.9065 280 19.0602V24.0075C280 24.3329 279.889 24.6065 279.667 24.8284C279.46 25.0355 279.194 25.139 278.869 25.139C278.543 25.139 278.27 25.0355 278.048 24.8284C277.841 24.6065 277.737 24.3329 277.737 24.0075V23.1867C277.219 23.8227 276.591 24.3181 275.851 24.6731C275.112 25.0281 274.313 25.2055 273.455 25.2055C272.39 25.2055 271.422 24.9393 270.549 24.4069C269.691 23.8744 269.011 23.1423 268.508 22.2105C268.02 21.2639 267.776 20.2138 267.776 19.0602C267.776 17.9065 268.042 16.8638 268.574 15.932C269.107 14.9854 269.839 14.2459 270.771 13.7135C271.717 13.1662 272.76 12.8926 273.899 12.8926ZM273.899 23.2089C274.638 23.2089 275.304 23.0314 275.896 22.6764C276.502 22.3066 276.975 21.8112 277.316 21.19C277.656 20.554 277.826 19.844 277.826 19.0602C277.826 18.2763 277.656 17.5663 277.316 16.9304C276.975 16.2944 276.502 15.7989 275.896 15.4439C275.304 15.0742 274.638 14.8893 273.899 14.8893C273.159 14.8893 272.486 15.0742 271.88 15.4439C271.288 15.7989 270.815 16.2944 270.46 16.9304C270.12 17.5663 269.95 18.2763 269.95 19.0602C269.95 19.844 270.12 20.554 270.46 21.19C270.815 21.8112 271.288 22.3066 271.88 22.6764C272.486 23.0314 273.159 23.2089 273.899 23.2089Z" fill="#25265E"/>
<path d="M83.1262 27.2389C83.2248 27.4953 83.2741 27.7122 83.2741 27.8897C83.2741 28.3038 83.1262 28.6588 82.8303 28.9546C82.5345 29.2504 82.1697 29.3983 81.7359 29.3983C81.4401 29.3983 81.1541 29.3194 80.878 29.1617C80.6217 28.9842 80.4343 28.7475 80.316 28.4517L78.6595 24.3104H68.04L66.3539 28.4517C66.2159 28.7475 66.0187 28.9842 65.7623 29.1617C65.5059 29.3194 65.2298 29.3983 64.934 29.3983C64.5002 29.3983 64.1354 29.2504 63.8395 28.9546C63.5635 28.6391 63.4254 28.2742 63.4254 27.8601C63.4254 27.6629 63.4747 27.4361 63.5733 27.1797L71.8855 7.3311C72.1813 6.64088 72.6644 6.29578 73.3349 6.29578C74.0449 6.29578 74.528 6.64088 74.7844 7.3311L83.1262 27.2389ZM77.6241 21.7665L73.3941 11.2358L69.0753 21.7665H77.6241Z" fill="#25265E"/>
<path d="M183.598 6C185.097 6 186.388 6.1972 187.473 6.59161C188.577 6.98602 189.691 7.6368 190.816 8.54394C191.052 8.72142 191.21 8.90877 191.289 9.10597C191.368 9.28346 191.407 9.50038 191.407 9.75675C191.407 10.1512 191.259 10.4765 190.963 10.7329C190.687 10.9893 190.362 11.1175 189.987 11.1175C189.613 11.1175 189.267 10.9893 188.952 10.7329C188.143 10.0427 187.355 9.54968 186.586 9.25387C185.816 8.93835 184.821 8.78058 183.598 8.78058C182.06 8.78058 180.64 9.18485 179.338 9.99339C178.056 10.8019 177.031 11.9063 176.262 13.3064C175.512 14.6869 175.138 16.1955 175.138 17.8323C175.138 19.4888 175.512 21.0073 176.262 22.3877C177.031 23.7681 178.056 24.8626 179.338 25.6712C180.64 26.4797 182.06 26.884 183.598 26.884C185.491 26.884 187.305 26.2332 189.041 24.9316C189.376 24.695 189.701 24.5767 190.017 24.5767C190.392 24.5767 190.697 24.7147 190.934 24.9908C191.19 25.2472 191.318 25.5923 191.318 26.0261C191.318 26.4403 191.161 26.8051 190.845 27.1206C188.715 28.8363 186.3 29.6941 183.598 29.6941C181.488 29.6941 179.555 29.1715 177.8 28.1264C176.065 27.0812 174.694 25.6514 173.688 23.8372C172.683 22.0229 172.18 20.0212 172.18 17.8323C172.18 15.663 172.683 13.6811 173.688 11.8866C174.694 10.0723 176.065 8.64254 177.8 7.59736C179.555 6.53245 181.488 6 183.598 6Z" fill="#25265E"/>
<path d="M68.4683 47.9136C67.5938 47.9136 66.8195 47.7518 66.1453 47.4281C65.4712 47.0951 64.9429 46.6373 64.5602 46.0547C64.1867 45.472 64 44.8061 64 44.057V37.5784C64 37.3657 64.0683 37.1946 64.205 37.0651C64.3416 36.9264 64.5101 36.857 64.7106 36.857C64.9201 36.857 65.0886 36.9264 65.2161 37.0651C65.3528 37.1946 65.4211 37.3657 65.4211 37.5784V44.057C65.4211 44.5564 65.5487 45.0003 65.8037 45.3888C66.0679 45.768 66.4277 46.0686 66.8832 46.2905C67.3478 46.5032 67.8762 46.6096 68.4683 46.6096C69.0422 46.6096 69.5478 46.5032 69.9851 46.2905C70.4315 46.0686 70.7776 45.768 71.0236 45.3888C71.2787 45.0003 71.4062 44.5564 71.4062 44.057V37.5784C71.4062 37.3657 71.4745 37.1946 71.6112 37.0651C71.7478 36.9264 71.9163 36.857 72.1168 36.857C72.3263 36.857 72.4948 36.9264 72.6223 37.0651C72.7499 37.1946 72.8137 37.3657 72.8137 37.5784V44.057C72.8137 44.8061 72.6269 45.472 72.2534 46.0547C71.889 46.6373 71.3789 47.0951 70.723 47.4281C70.0671 47.7518 69.3155 47.9136 68.4683 47.9136Z" fill="#494558"/>
<path d="M81.3776 47.6917C81.1681 47.6917 81.0087 47.6269 80.8993 47.4975C80.79 47.3587 80.7354 47.2015 80.7354 47.0258C80.7354 46.8408 80.79 46.6743 80.8993 46.5264L84.0832 42.2258L81.077 37.9946C80.9677 37.8466 80.9221 37.6847 80.9403 37.509C80.9586 37.3333 81.0223 37.1807 81.1316 37.0512C81.2501 36.9217 81.4049 36.857 81.5962 36.857C81.8331 36.857 82.0016 36.9264 82.1018 37.0651L85.0397 41.1992L88.1006 37.0651C88.2281 36.9264 88.3966 36.857 88.6062 36.857C88.7975 36.857 88.9478 36.9171 89.0571 37.0373C89.1664 37.1576 89.2256 37.3055 89.2347 37.4813C89.2438 37.657 89.1937 37.8281 89.0844 37.9946L85.9689 42.2119L89.0298 46.5264C89.1391 46.6743 89.1892 46.8408 89.1801 47.0258C89.171 47.2107 89.1072 47.368 88.9888 47.4975C88.8795 47.6269 88.7246 47.6917 88.5242 47.6917C88.2964 47.6917 88.1142 47.6038 87.9776 47.4281L85.0124 43.2524L81.8695 47.4836C81.7329 47.6223 81.5689 47.6917 81.3776 47.6917Z" fill="#494558"/>
<path d="M106.791 48.7183C106.536 48.7183 106.34 48.6119 106.203 48.3992C106.076 48.1957 106.062 47.9691 106.162 47.7194L110.275 37.2732C110.33 37.1437 110.417 37.042 110.535 36.968C110.653 36.894 110.781 36.857 110.918 36.857C111.154 36.857 111.341 36.9587 111.478 37.1622C111.624 37.3564 111.646 37.5876 111.546 37.8558L107.433 48.3021C107.378 48.4501 107.287 48.5564 107.16 48.6212C107.041 48.6859 106.918 48.7183 106.791 48.7183Z" fill="#494558"/>
<path d="M133.583 47.9136C132.709 47.9136 131.934 47.7518 131.26 47.4281C130.586 47.0951 130.058 46.6373 129.675 46.0547C129.302 45.472 129.115 44.8061 129.115 44.057V37.5784C129.115 37.3657 129.183 37.1946 129.32 37.0651C129.457 36.9264 129.625 36.857 129.825 36.857C130.035 36.857 130.204 36.9264 130.331 37.0651C130.468 37.1946 130.536 37.3657 130.536 37.5784V44.057C130.536 44.5564 130.664 45.0003 130.919 45.3888C131.183 45.768 131.543 46.0686 131.998 46.2905C132.463 46.5032 132.991 46.6096 133.583 46.6096C134.157 46.6096 134.663 46.5032 135.1 46.2905C135.546 46.0686 135.893 45.768 136.139 45.3888C136.394 45.0003 136.521 44.5564 136.521 44.057V37.5784C136.521 37.3657 136.589 37.1946 136.726 37.0651C136.863 36.9264 137.031 36.857 137.232 36.857C137.441 36.857 137.61 36.9264 137.737 37.0651C137.865 37.1946 137.929 37.3657 137.929 37.5784V44.057C137.929 44.8061 137.742 45.472 137.368 46.0547C137.004 46.6373 136.494 47.0951 135.838 47.4281C135.182 47.7518 134.43 47.9136 133.583 47.9136Z" fill="#494558"/>
<path d="M147.244 47.6917C147.044 47.6917 146.875 47.6223 146.738 47.4836C146.602 47.3449 146.534 47.1738 146.534 46.9703V37.5784C146.534 37.3657 146.602 37.1946 146.738 37.0651C146.875 36.9264 147.044 36.857 147.244 36.857C147.454 36.857 147.622 36.9264 147.75 37.0651C147.886 37.1946 147.955 37.3657 147.955 37.5784V46.9703C147.955 47.1738 147.886 47.3449 147.75 47.4836C147.622 47.6223 147.454 47.6917 147.244 47.6917Z" fill="#494558"/>
<path d="M167.149 47.6917C166.949 47.6917 166.78 47.6223 166.643 47.4836C166.507 47.3449 166.438 47.1738 166.438 46.9703V37.5784C166.438 37.3657 166.507 37.1946 166.643 37.0651C166.78 36.9264 166.949 36.857 167.149 36.857H169.622C170.406 36.857 171.116 36.9911 171.754 37.2593C172.401 37.5183 172.961 37.8928 173.435 38.383C173.908 38.8639 174.273 39.4327 174.528 40.0894C174.783 40.746 174.91 41.472 174.91 42.2674C174.91 43.0628 174.783 43.7934 174.528 44.4593C174.273 45.1159 173.908 45.6894 173.435 46.1795C172.961 46.6605 172.401 47.035 171.754 47.3032C171.116 47.5622 170.406 47.6917 169.622 47.6917H167.149ZM167.86 46.4154H169.622C170.387 46.4154 171.062 46.2396 171.645 45.8882C172.237 45.5275 172.701 45.0373 173.038 44.4177C173.375 43.7888 173.544 43.072 173.544 42.2674C173.544 41.4535 173.375 40.7368 173.038 40.1171C172.701 39.4975 172.237 39.0119 171.645 38.6605C171.062 38.309 170.387 38.1333 169.622 38.1333H167.86V46.4154Z" fill="#494558"/>
<path d="M183.727 47.6917C183.526 47.6917 183.358 47.6223 183.221 47.4836C183.085 47.3449 183.016 47.1738 183.016 46.9703V37.5784C183.016 37.3657 183.085 37.1946 183.221 37.0651C183.358 36.9264 183.526 36.857 183.727 36.857H189.903C190.113 36.857 190.281 36.9217 190.409 37.0512C190.536 37.1714 190.6 37.3333 190.6 37.5368C190.6 37.731 190.536 37.8882 190.409 38.0084C190.281 38.1287 190.113 38.1888 189.903 38.1888H184.437V41.5599H188.359C188.569 41.5599 188.737 41.6246 188.865 41.7541C188.992 41.8743 189.056 42.0316 189.056 42.2258C189.056 42.42 188.992 42.5818 188.865 42.7113C188.737 42.8316 188.569 42.8917 188.359 42.8917H184.437V46.3599H189.903C190.113 46.3599 190.281 46.42 190.409 46.5402C190.536 46.6605 190.6 46.8177 190.6 47.0119C190.6 47.2154 190.536 47.3818 190.409 47.5113C190.281 47.6316 190.113 47.6917 189.903 47.6917H183.727Z" fill="#494558"/>
<path d="M201.849 47.8304C201.266 47.8304 200.71 47.7379 200.182 47.5529C199.653 47.368 199.193 47.109 198.802 46.7761C198.41 46.4431 198.123 46.0593 197.941 45.6246C197.85 45.4304 197.85 45.2501 197.941 45.0836C198.041 44.9171 198.205 44.8107 198.433 44.7645C198.597 44.7275 198.756 44.7553 198.911 44.8477C199.075 44.931 199.198 45.0605 199.28 45.2362C199.389 45.4674 199.567 45.6801 199.813 45.8743C200.068 46.0686 200.373 46.2258 200.728 46.346C201.084 46.4662 201.457 46.5264 201.849 46.5264C202.286 46.5264 202.687 46.457 203.051 46.3183C203.425 46.1795 203.725 45.9807 203.953 45.7217C204.181 45.4535 204.295 45.1252 204.295 44.7368C204.295 44.2466 204.103 43.8073 203.721 43.4188C203.347 43.0304 202.728 42.7899 201.862 42.6975C200.733 42.5865 199.845 42.2489 199.198 41.6847C198.551 41.1206 198.228 40.4223 198.228 39.5899C198.228 38.9795 198.396 38.4616 198.733 38.0362C199.07 37.6107 199.526 37.287 200.1 37.0651C200.683 36.8431 201.33 36.7321 202.04 36.7321C202.869 36.7321 203.548 36.9032 204.076 37.2454C204.604 37.5876 205.042 38.0408 205.388 38.605C205.515 38.8084 205.566 39.0027 205.538 39.1876C205.52 39.3633 205.433 39.5021 205.279 39.6038C205.106 39.7148 204.919 39.7379 204.718 39.6732C204.518 39.6084 204.368 39.4882 204.267 39.3125C204.04 38.9148 203.744 38.605 203.379 38.383C203.024 38.161 202.564 38.0454 201.999 38.0362C201.325 38.0269 200.76 38.1564 200.305 38.4246C199.849 38.6836 199.621 39.0859 199.621 39.6316C199.621 39.909 199.69 40.1772 199.826 40.4362C199.972 40.6859 200.232 40.9032 200.605 41.0882C200.988 41.2732 201.535 41.4027 202.245 41.4766C203.329 41.5876 204.172 41.9252 204.773 42.4894C205.383 43.0443 205.689 43.7795 205.689 44.6951C205.689 45.2223 205.579 45.6801 205.361 46.0686C205.151 46.457 204.864 46.7853 204.5 47.0535C204.144 47.3125 203.734 47.5067 203.27 47.6362C202.814 47.7657 202.341 47.8304 201.849 47.8304Z" fill="#494558"/>
<path d="M214.454 47.6917C214.254 47.6917 214.085 47.6223 213.948 47.4836C213.812 47.3449 213.743 47.1738 213.743 46.9703V37.5784C213.743 37.3657 213.812 37.1946 213.948 37.0651C214.085 36.9264 214.254 36.857 214.454 36.857C214.664 36.857 214.832 36.9264 214.96 37.0651C215.096 37.1946 215.165 37.3657 215.165 37.5784V46.9703C215.165 47.1738 215.096 47.3449 214.96 47.4836C214.832 47.6223 214.664 47.6917 214.454 47.6917Z" fill="#494558"/>
<path d="M228.552 47.8304C227.814 47.8304 227.122 47.6917 226.475 47.4142C225.837 47.1275 225.277 46.7344 224.794 46.235C224.32 45.7264 223.947 45.1344 223.674 44.4593C223.41 43.7842 223.277 43.0535 223.277 42.2674C223.277 41.4905 223.41 40.7691 223.674 40.1032C223.947 39.4281 224.32 38.8408 224.794 38.3414C225.277 37.8327 225.837 37.435 226.475 37.1483C227.113 36.8616 227.805 36.7183 228.552 36.7183C229.253 36.7183 229.855 36.8107 230.356 36.9957C230.866 37.1807 231.376 37.4859 231.886 37.9113C231.995 38.0038 232.068 38.0917 232.105 38.1749C232.141 38.2581 232.159 38.3599 232.159 38.4801C232.159 38.6558 232.096 38.8038 231.968 38.924C231.85 39.0443 231.699 39.109 231.517 39.1183C231.344 39.1275 231.18 39.0674 231.025 38.9379C230.688 38.642 230.337 38.4154 229.973 38.2581C229.618 38.1009 229.144 38.0223 228.552 38.0223C228.014 38.0223 227.509 38.1333 227.035 38.3553C226.561 38.5772 226.142 38.8824 225.778 39.2709C225.423 39.6593 225.145 40.1125 224.944 40.6304C224.744 41.1391 224.644 41.6847 224.644 42.2674C224.644 42.8593 224.744 43.4142 224.944 43.9321C225.145 44.4408 225.423 44.8894 225.778 45.2778C226.142 45.6662 226.561 45.9714 227.035 46.1934C227.509 46.4061 228.014 46.5125 228.552 46.5125C228.953 46.5125 229.335 46.4524 229.7 46.3321C230.064 46.2119 230.415 46.0408 230.752 45.8188V43.3495H228.866C228.666 43.3495 228.497 43.2894 228.361 43.1691C228.224 43.0489 228.156 42.8963 228.156 42.7113C228.156 42.5264 228.224 42.3738 228.361 42.2535C228.497 42.1333 228.666 42.0732 228.866 42.0732H231.421C231.631 42.0732 231.8 42.1425 231.927 42.2813C232.055 42.4107 232.118 42.5818 232.118 42.7946V46.1102C232.118 46.2027 232.1 46.2951 232.064 46.3876C232.036 46.4709 231.982 46.5495 231.9 46.6235C231.417 47.0304 230.893 47.3356 230.328 47.5391C229.764 47.7333 229.171 47.8304 228.552 47.8304Z" fill="#494558"/>
<path d="M240.964 47.6917C240.764 47.6917 240.595 47.6223 240.458 47.4836C240.331 47.3449 240.267 47.1738 240.267 46.9703V37.5784C240.267 37.3657 240.331 37.1946 240.458 37.0651C240.595 36.9264 240.764 36.857 240.964 36.857C241.183 36.857 241.365 36.9449 241.511 37.1206L247.468 45.1668V37.5784C247.468 37.3657 247.537 37.1946 247.673 37.0651C247.81 36.9264 247.979 36.857 248.179 36.857C248.388 36.857 248.557 36.9264 248.685 37.0651C248.812 37.1946 248.876 37.3657 248.876 37.5784V46.9703C248.876 47.1738 248.812 47.3449 248.685 47.4836C248.557 47.6223 248.388 47.6917 248.179 47.6917C248.088 47.6917 247.988 47.6732 247.878 47.6362C247.778 47.5899 247.696 47.5252 247.632 47.442L241.675 39.3957V46.9703C241.675 47.1738 241.606 47.3449 241.47 47.4836C241.342 47.6223 241.174 47.6917 240.964 47.6917Z" fill="#494558"/>
<path d="M258.196 47.6917C257.996 47.6917 257.827 47.6223 257.691 47.4836C257.554 47.3449 257.486 47.1738 257.486 46.9703V37.5784C257.486 37.3657 257.554 37.1946 257.691 37.0651C257.827 36.9264 257.996 36.857 258.196 36.857H264.373C264.582 36.857 264.751 36.9217 264.878 37.0512C265.006 37.1714 265.069 37.3333 265.069 37.5368C265.069 37.731 265.006 37.8882 264.878 38.0084C264.751 38.1287 264.582 38.1888 264.373 38.1888H258.907V41.5599H262.828C263.038 41.5599 263.207 41.6246 263.334 41.7541C263.462 41.8743 263.525 42.0316 263.525 42.2258C263.525 42.42 263.462 42.5818 263.334 42.7113C263.207 42.8316 263.038 42.8917 262.828 42.8917H258.907V46.3599H264.373C264.582 46.3599 264.751 46.42 264.878 46.5402C265.006 46.6605 265.069 46.8177 265.069 47.0119C265.069 47.2154 265.006 47.3818 264.878 47.5113C264.751 47.6316 264.582 47.6917 264.373 47.6917H258.196Z" fill="#494558"/>
<path d="M273.64 47.6917C273.439 47.6917 273.271 47.6223 273.134 47.4836C272.998 47.3449 272.929 47.1738 272.929 46.9703V37.5784C272.929 37.3657 272.998 37.1946 273.134 37.0651C273.271 36.9264 273.439 36.857 273.64 36.857H276.099C276.783 36.857 277.388 37.005 277.917 37.3009C278.445 37.5876 278.855 37.9853 279.147 38.494C279.447 39.0027 279.598 39.5946 279.598 40.2697C279.598 40.9356 279.434 41.5229 279.106 42.0316C278.778 42.531 278.331 42.9102 277.767 43.1691L279.857 46.5818C280.021 46.8501 280.044 47.1044 279.926 47.3449C279.807 47.5761 279.602 47.6917 279.311 47.6917C279.046 47.6917 278.841 47.5761 278.696 47.3449L276.345 43.5159C276.263 43.5159 276.181 43.5159 276.099 43.5159H274.35V46.9703C274.35 47.1738 274.282 47.3449 274.145 47.4836C274.018 47.6223 273.849 47.6917 273.64 47.6917ZM274.35 42.1842H276.099C276.719 42.1842 277.229 42.0084 277.63 41.657C278.031 41.2963 278.231 40.8339 278.231 40.2697C278.231 39.6593 278.031 39.1599 277.63 38.7714C277.229 38.383 276.719 38.1888 276.099 38.1888H274.35V42.1842Z" fill="#494558"/>
<path fill-rule="evenodd" clip-rule="evenodd" d="M27.2581 3.96482C14.3936 3.96482 3.96481 14.3936 3.96481 27.2581C3.96481 40.1226 14.3936 50.5514 27.2581 50.5514C32.0231 50.5514 36.4485 49.1227 40.1365 46.6708C41.0483 46.0646 42.2788 46.3123 42.8849 47.224C43.4911 48.1358 43.2434 49.3663 42.3316 49.9725C38.0134 52.8434 32.8281 54.5162 27.2581 54.5162C12.2039 54.5162 0 42.3123 0 27.2581C0 12.2039 12.2039 0 27.2581 0C31.5921 0 35.6952 1.01293 39.3383 2.81678C40.3195 3.30259 40.7211 4.49181 40.2353 5.47298C39.7495 6.45415 38.5602 6.85572 37.5791 6.36991C34.4706 4.83082 30.9683 3.96482 27.2581 3.96482Z" fill="#25265E"/>
<path fill-rule="evenodd" clip-rule="evenodd" d="M27.1036 25.1765C27.8007 25.1746 28.4476 25.5389 28.8073 26.1361L36.6877 39.22C37.2479 40.1502 36.9555 41.358 36.0319 41.929C29.8532 45.7486 23.6075 45.034 18.3296 41.9552C17.8729 41.6888 17.5416 41.2511 17.4092 40.7392C17.2768 40.2274 17.3544 39.6839 17.6246 39.2295L25.4052 26.1457C25.7616 25.5465 26.4064 25.1785 27.1036 25.1765Z" fill="#25265E"/>
</svg>
